<?xml version="1.0" encoding="utf-8"?>
<!-- Generator: Adobe Illustrator 26.3.1, SVG Export Plug-In . SVG Version: 6.00 Build 0)  -->
<svg version="1.1" id="Layer_1" xmlns="http://www.w3.org/2000/svg" xmlns:xlink="http://www.w3.org/1999/xlink" x="0px" y="0px"
	 viewBox="0 0 34 34" style="enable-background:new 0 0 34 34;" xml:space="preserve">
<style type="text/css">
	.st0{fill-rule:evenodd;clip-rule:evenodd;fill:#D53E91;}
	.st1{fill:#FFFFFF;}
</style>
<path class="st0" d="M5.1,0.7h23.8c2.5,0,4.5,2,4.5,4.5v23.8c0,2.5-2,4.5-4.5,4.5H5.1c-2.5,0-4.5-2-4.5-4.5V5.1
	C0.7,2.6,2.6,0.7,5.1,0.7z"/>
<path class="st1" d="M13.5,8.5c-2.7,0-5,2.3-5,5v7c0,2.7,2.3,5,5,5h7c2.7,0,5-2.3,5-5v-7c0-2.7-2.3-5-5-5H13.5z M13.5,10h7
	c1.9,0,3.5,1.5,3.5,3.5v7c0,1.9-1.5,3.5-3.5,3.5h-7c-1.9,0-3.5-1.5-3.5-3.5v-7C10,11.6,11.6,10,13.5,10z M21.6,11.7
	c-0.4,0-0.7,0.3-0.7,0.7c0,0.4,0.3,0.7,0.7,0.7c0.4,0,0.7-0.3,0.7-0.7C22.3,12,22,11.7,21.6,11.7z M17,12.4c-2.6,0-4.6,2.1-4.6,4.6
	s2.1,4.6,4.6,4.6s4.6-2.1,4.6-4.6S19.6,12.4,17,12.4z M17,13.9c1.7,0,3.1,1.4,3.1,3.1s-1.4,3.1-3.1,3.1s-3.1-1.4-3.1-3.1
	S15.3,13.9,17,13.9z"/>
</svg>
