<?xml version="1.0" encoding="utf-8"?>
<!-- Generator: Adobe Illustrator 26.3.1, SVG Export Plug-In . SVG Version: 6.00 Build 0)  -->
<svg version="1.1" id="Layer_1" xmlns="http://www.w3.org/2000/svg" xmlns:xlink="http://www.w3.org/1999/xlink" x="0px" y="0px"
	 viewBox="0 0 34 34" style="enable-background:new 0 0 34 34;" xml:space="preserve">
<style type="text/css">
	.st0{fill-rule:evenodd;clip-rule:evenodd;fill:#212121;}
	.st1{fill-rule:evenodd;clip-rule:evenodd;fill:#EC407A;}
	.st2{fill-rule:evenodd;clip-rule:evenodd;fill:#FFFFFF;}
	.st3{fill-rule:evenodd;clip-rule:evenodd;fill:#81D4FA;}
</style>
<path class="st0" d="M5,0.5h24c2.5,0,4.5,2,4.5,4.5v24c0,2.5-2,4.5-4.5,4.5H5c-2.5,0-4.5-2-4.5-4.5V5C0.5,2.5,2.5,0.5,5,0.5z"/>
<g>
	<path class="st1" d="M20.7,14.6c1.1,0.8,2.5,1.3,4,1.3V13c-0.3,0-0.6,0-0.8-0.1v2.2c-1.5,0-2.8-0.5-4-1.3v5.8
		c0,2.9-2.4,5.3-5.3,5.3c-1.1,0-2.1-0.3-2.9-0.9c1,1,2.3,1.6,3.8,1.6c2.9,0,5.3-2.4,5.3-5.3V14.6L20.7,14.6z M21.7,11.7
		c-0.6-0.6-0.9-1.4-1-2.3V9h-0.8C20.1,10.2,20.8,11.1,21.7,11.7L21.7,11.7z M13.5,21.8c-0.3-0.4-0.5-0.9-0.5-1.5
		c0-1.3,1.1-2.4,2.4-2.4c0.2,0,0.5,0,0.7,0.1v-2.9c-0.3,0-0.6-0.1-0.8,0v2.3c-0.2-0.1-0.5-0.1-0.7-0.1c-1.3,0-2.4,1.1-2.4,2.4
		C12.2,20.6,12.7,21.4,13.5,21.8z"/>
	<path class="st2" d="M19.9,13.9c1.1,0.8,2.5,1.3,4,1.3v-2.2c-0.8-0.2-1.6-0.6-2.1-1.2c-0.9-0.6-1.6-1.6-1.8-2.7h-2.1v11.3
		c0,1.3-1.1,2.4-2.4,2.4c-0.8,0-1.5-0.4-1.9-0.9c-0.8-0.4-1.3-1.2-1.3-2.1c0-1.3,1.1-2.4,2.4-2.4c0.3,0,0.5,0,0.7,0.1v-2.3
		c-2.9,0.1-5.1,2.4-5.1,5.2c0,1.4,0.6,2.7,1.5,3.7c0.8,0.6,1.8,0.9,2.9,0.9c2.9,0,5.3-2.4,5.3-5.3L19.9,13.9L19.9,13.9z"/>
	<path class="st3" d="M23.8,12.9v-0.6c-0.7,0-1.5-0.2-2.1-0.6C22.3,12.3,23,12.8,23.8,12.9z M19.9,9c0-0.1,0-0.2,0-0.3V8.4H17v11.3
		c0,1.3-1.1,2.4-2.4,2.4c-0.4,0-0.8-0.1-1.1-0.3c0.4,0.6,1.1,0.9,1.9,0.9c1.3,0,2.4-1.1,2.4-2.4V9H19.9z M15.3,15.1v-0.6
		c-0.2,0-0.5,0-0.7,0c-2.9,0-5.3,2.4-5.3,5.3c0,1.8,0.9,3.4,2.3,4.4c-0.9-0.9-1.5-2.2-1.5-3.7C10.2,17.5,12.5,15.2,15.3,15.1z"/>
</g>
</svg>
